TITLE ""
FILE "Step3_Track05.mp3" MP3
  TRACK 01 AUDIO
    TITLE "Step3_Track05_01"
    INDEX 01 00:00:00
  TRACK 02 AUDIO
    TITLE "Step3_Track05_02"
    INDEX 01 00:00:24
  TRACK 03 AUDIO
    TITLE "Step3_Track05_03"
    INDEX 01 00:01:51
  TRACK 04 AUDIO
    TITLE "Step3_Track05_04"
    INDEX 01 00:02:35
  TRACK 05 AUDIO
    TITLE "Step3_Track05_05"
    INDEX 01 00:03:28
  TRACK 06 AUDIO
    TITLE "Step3_Track05_06"
    INDEX 01 00:03:42
  TRACK 07 AUDIO
    TITLE "Step3_Track05_07"
    INDEX 01 00:06:29
  TRACK 08 AUDIO
    TITLE "Step3_Track05_08"
    INDEX 01 00:06:64
  TRACK 09 AUDIO
    TITLE "Step3_Track05_09"
    INDEX 01 00:07:59
  TRACK 10 AUDIO
    TITLE "Step3_Track05_10"
    INDEX 01 00:07:61
  TRACK 11 AUDIO
    TITLE "Step3_Track05_11"
    INDEX 01 00:09:58
  TRACK 12 AUDIO
    TITLE "Step3_Track05_12"
    INDEX 01 00:10:20
  TRACK 13 AUDIO
    TITLE "Step3_Track05_13"
    INDEX 01 00:11:18
  TRACK 14 AUDIO
    TITLE "Step3_Track05_14"
    INDEX 01 00:11:26
  TRACK 15 AUDIO
    TITLE "Step3_Track05_15"
    INDEX 01 00:15:10
  TRACK 16 AUDIO
    TITLE "Step3_Track05_16"
    INDEX 01 00:15:45
  TRACK 17 AUDIO
    TITLE "Step3_Track05_17"
    INDEX 01 00:16:49
  TRACK 18 AUDIO
    TITLE "Step3_Track05_18"
    INDEX 01 00:16:50
  TRACK 19 AUDIO
    TITLE "Step3_Track05_19"
    INDEX 01 00:18:43
  TRACK 20 AUDIO
    TITLE "Step3_Track05_20"
    INDEX 01 00:19:06
  TRACK 21 AUDIO
    TITLE "Step3_Track05_21"
    INDEX 01 00:19:74
  TRACK 22 AUDIO
    TITLE "Step3_Track05_22"
    INDEX 01 00:20:01
  TRACK 23 AUDIO
    TITLE "Step3_Track05_23"
    INDEX 01 00:21:63
  TRACK 24 AUDIO
    TITLE "Step3_Track05_24"
    INDEX 01 00:22:22
  TRACK 25 AUDIO
    TITLE "Step3_Track05_25"
    INDEX 01 00:23:21
  TRACK 26 AUDIO
    TITLE "Step3_Track05_26"
    INDEX 01 00:23:25
  TRACK 27 AUDIO
    TITLE "Step3_Track05_27"
    INDEX 01 00:26:06
  TRACK 28 AUDIO
    TITLE "Step3_Track05_28"
    INDEX 01 00:26:39
  TRACK 29 AUDIO
    TITLE "Step3_Track05_29"
    INDEX 01 00:27:39
  TRACK 30 AUDIO
    TITLE "Step3_Track05_30"
    INDEX 01 00:27:40
  TRACK 31 AUDIO
    TITLE "Step3_Track05_31"
    INDEX 01 00:29:65
  TRACK 32 AUDIO
    TITLE "Step3_Track05_32"
    INDEX 01 00:30:29
  TRACK 33 AUDIO
    TITLE "Step3_Track05_33"
    INDEX 01 00:31:09
  TRACK 34 AUDIO
    TITLE "Step3_Track05_34"
    INDEX 01 00:31:27
  TRACK 35 AUDIO
    TITLE "Step3_Track05_35"
    INDEX 01 00:33:31
  TRACK 36 AUDIO
    TITLE "Step3_Track05_36"
    INDEX 01 00:33:67
  TRACK 37 AUDIO
    TITLE "Step3_Track05_37"
    INDEX 01 00:34:68
  TRACK 38 AUDIO
    TITLE "Step3_Track05_38"
    INDEX 01 00:35:03
  TRACK 39 AUDIO
    TITLE "Step3_Track05_39"
    INDEX 01 00:36:36
  TRACK 40 AUDIO
    TITLE "Step3_Track05_40"
    INDEX 01 00:37:02
  TRACK 41 AUDIO
    TITLE "Step3_Track05_41"
    INDEX 01 00:37:74
  TRACK 42 AUDIO
    TITLE "Step3_Track05_42"
    INDEX 01 00:38:15
  TRACK 43 AUDIO
    TITLE "Step3_Track05_43"
    INDEX 01 00:40:04
